  <svg version="1.1" xmlns="http://www.w3.org/2000/svg" xmlns:xlink="http://www.w3.org/1999/xlink" x="0px" y="0px" viewBox="0 0 579.729 679.026" style="enable-background:new 0 0 579.729 679.026;" xml:space="preserve">
   <g>
    <g>
     <g>
      <g>
       <path style="fill:#E8EDF2;" d="M345.604,29.478c3.098-9.533-0.687-19.307-8.453-21.831c-7.766-2.523-16.573,3.16-19.67,12.693
					c-2.662,8.194-5.238,31.944-0.979,40.061l-19.833,61.039l6.348,2.063l19.833-61.039C331.066,58.4,342.942,37.671,345.604,29.478
					z">
       </path>
      </g>
      <g>
       <path style="fill:#DFE6F2;" d="M337.152,7.647l-37.309,114.824l3.174,1.031l19.833-61.039
					c8.216-4.063,20.093-24.792,22.755-32.986C348.702,19.944,344.918,10.17,337.152,7.647z">
       </path>
      </g>
     </g>
     <g>
      <g>
       <path style="fill:#E8EDF2;" d="M325.585,22.203c1.568-9.901-3.699-18.962-11.764-20.24c-8.065-1.277-15.875,5.713-17.443,15.614
					c-1.348,8.509-0.176,32.37,5.299,39.721l-10.04,63.39l6.593,1.044l10.04-63.39C315.75,53.044,324.238,30.713,325.585,22.203z">
       </path>
      </g>
      <g>
       <path style="fill:#DFE6F2;" d="M313.822,1.964l-18.887,119.247l3.296,0.522l10.04-63.39c7.479-5.298,15.967-27.63,17.315-36.139
					C327.154,12.303,321.887,3.241,313.822,1.964z">
       </path>
      </g>
     </g>
     <g>
      <g>
       <path style="fill:#E8EDF2;" d="M304.675,18.15c0-10.024-6.62-18.15-14.785-18.15c-8.166,0-14.785,8.126-14.785,18.15
					c0,8.615,4.89,31.999,11.448,38.403v64.181h6.675V56.553C299.785,50.15,304.675,26.765,304.675,18.15z">
       </path>
      </g>
      <g>
       <path style="fill:#DFE6F2;" d="M289.89,0v120.734h3.337V56.553c6.558-6.403,11.448-29.788,11.448-38.403
					C304.675,8.126,298.055,0,289.89,0z">
       </path>
      </g>
     </g>
     <g>
      <g>
       <path style="fill:#E8EDF2;" d="M283.388,17.418c-1.568-9.901-9.377-16.891-17.443-15.614
					c-8.065,1.277-13.332,10.339-11.764,20.24c1.348,8.509,9.835,30.841,17.315,36.139l10.04,63.39l6.593-1.044l-10.04-63.39
					C283.564,49.789,284.736,25.927,283.388,17.418z">
       </path>
      </g>
      <g>
       <path style="fill:#DFE6F2;" d="M265.945,1.804l18.887,119.247l3.296-0.522l-10.04-63.39c5.476-7.35,6.647-31.212,5.3-39.721
					C281.82,7.517,274.01,0.527,265.945,1.804z">
       </path>
      </g>
     </g>
     <g>
      <g>
       <path style="fill:#E8EDF2;" d="M262.248,20.025c-3.098-9.533-11.904-15.216-19.67-12.693
					c-7.766,2.523-11.551,12.297-8.453,21.831c2.662,8.194,14.539,28.922,22.755,32.986l19.833,61.039l6.348-2.063l-19.833-61.039
					C267.486,51.969,264.911,28.219,262.248,20.025z">
       </path>
      </g>
      <g>
       <path style="fill:#DFE6F2;" d="M242.578,7.332l37.309,114.824l3.174-1.031l-19.833-61.039
					c4.259-8.116,1.683-31.867-0.979-40.061C259.151,10.491,250.344,4.809,242.578,7.332z">
       </path>
      </g>
     </g>
     <g>
      <path style="fill:#DFE6F2;" d="M308.721,116.122c0,10.401-8.432,18.833-18.833,18.833c-10.401,0-18.833-8.432-18.833-18.833">
      </path>
     </g>
     <g>
      <rect x="270.417" y="107.147" style="fill:#DFE6F2;" width="38.974" height="10.021">
      </rect>
     </g>
     <g>
      <rect x="270.417" y="113.146" style="fill:#E8EDF2;" width="38.974" height="4.023">
      </rect>
     </g>
     <g>
      <rect x="264.197" y="77.683" style="fill:#E8EDF2;" width="47.913" height="4.023">
      </rect>
     </g>
     <g>
      <rect x="267.682" y="81.706" style="fill:#DFE6F2;" width="47.913" height="2.387">
      </rect>
     </g>
     <g>
      <rect x="268.972" y="91.222" style="fill:#E8EDF2;" width="39.011" height="4.023">
      </rect>
     </g>
     <g>
      <rect x="273.1" y="95.244" style="fill:#DFE6F2;" width="37.624" height="2.387">
      </rect>
     </g>
    </g>
    <g>
     <g>
      <g>
       <rect x="258.493" y="324.924" transform="matrix(0.7071 0.7071 -0.7071 0.7071 404.5148 -51.3089)" style="fill:#FFDF95;" width="11.399" height="275.429">
       </rect>
      </g>
      <g>
       <path style="fill:#DFE6F2;" d="M576.492,280.504l-0.727,0.727l-9.487-9.487l9.919-9.919l2.864,2.864
					c0.162-1.605,0.298-3.208,0.398-4.808l-0.659-0.659l0.732-0.732c0.092-1.792,0.144-3.58,0.158-5.364l-3.493,3.493l-9.489-9.489
					l9.919-9.92l2.413,2.413c-0.314-2.945-0.742-5.863-1.279-8.752l-1.134,1.134l-9.487-9.487l6.722-6.722
					c-0.435-1.28-0.923-2.538-1.406-3.799l-7.919,7.919l-9.487-9.487l11.379-11.379c-0.616-1.11-1.243-2.215-1.903-3.303
					l-12.079,12.079l-9.489-9.489l13.717-13.717c-0.775-0.954-1.557-1.904-2.372-2.834l-13.948,13.948l-9.487-9.487l13.927-13.927
					c-0.932-0.811-1.877-1.601-2.833-2.372l-13.697,13.697l-9.487-9.487l12.018-12.018c-1.09-0.655-2.191-1.29-3.303-1.902
					l-11.318,11.318l-9.487-9.487l7.814-7.814c-1.265-0.48-2.529-0.961-3.813-1.392l-6.604,6.604l-9.489-9.489l0.98-0.981
					c-2.764-0.504-5.555-0.904-8.37-1.203l2.184,2.184l-9.92,9.92l-9.487-9.487l3.263-3.263c-1.791,0.02-3.587,0.082-5.387,0.181
					l-0.479,0.479l-0.431-0.431c-1.601,0.1-3.203,0.236-4.808,0.397l2.637,2.637l-9.919,9.92l-9.487-9.487l0.354-0.354
					c-2.352,0.544-4.699,1.16-7.041,1.835l-8.439,8.439l-4.15-4.15c-1.235,0.487-2.468,0.984-3.697,1.509l5.244,5.244l-9.92,9.92
					l-8.641-8.641c-1.113,0.616-2.225,1.231-3.327,1.878l9.366,9.366l-9.919,9.92l-11.433-11.433
					c-1.004,0.726-2.01,1.449-3.002,2.204l11.832,11.832l-9.92,9.92l-12.727-12.727c-0.9,0.824-1.775,1.694-2.661,2.545
					l12.785,12.785l-9.919,9.92l-12.547-12.547c-0.81,0.93-1.623,1.857-2.406,2.8l12.351,12.351l-9.92,9.92l-10.959-10.959
					c-0.708,1.035-1.409,2.072-2.087,3.118l10.444,10.444l-9.919,9.92l-7.828-7.828c-0.598,1.155-1.158,2.319-1.722,3.483
					l6.948,6.948l-9.92,9.92l-2.924-2.924c-0.465,1.292-0.894,2.589-1.319,3.887l1.64,1.64l-3.087,3.087
					c-0.675,2.342-1.292,4.689-1.835,7.041l7.525-7.525l9.487,9.487l-9.919,9.92l-7.937-7.937c-0.292,1.463-0.576,2.925-0.817,4.388
					l6.151,6.151l-7.651,7.651c-0.176,3.202-0.253,6.393-0.18,9.563l7.398,7.398l-6.263,6.263c0.212,1.504,0.443,3.003,0.715,4.491
					l8.152-8.152l9.489,9.489l-13.775,13.775c0.431,1.284,0.912,2.548,1.392,3.813l14.985-14.985l9.487,9.487l-18.489,18.489
					c0.612,1.112,1.247,2.213,1.902,3.303l19.189-19.189l9.487,9.487l-20.868,20.868c0.771,0.956,1.561,1.902,2.372,2.833
					l21.099-21.098l9.487,9.487l-21.119,21.119c0.93,0.815,1.88,1.597,2.834,2.372l20.888-20.888l9.489,9.489l-19.25,19.25
					c1.088,0.659,2.193,1.287,3.303,1.903l18.55-18.55l9.487,9.487l-15.09,15.09c1.261,0.484,2.52,0.972,3.799,1.406l13.893-13.894
					l9.487,9.487l-8.305,8.305c1.483,0.276,2.975,0.516,4.473,0.732l6.434-6.435l7.627,7.627c3.012,0.069,6.043,0.001,9.083-0.155
					l7.904-7.904l6.379,6.379c1.463-0.241,2.926-0.525,4.388-0.817l-8.164-8.164l9.92-9.92l9.487,9.487l-7.898,7.898
					c2.338-0.529,4.671-1.136,7-1.795l3.501-3.501l1.868,1.868c1.298-0.425,2.595-0.854,3.887-1.319l-3.152-3.152l9.919-9.919
					l7.176,7.176c1.164-0.564,2.329-1.124,3.483-1.722l-8.056-8.056l9.92-9.92l10.671,10.671c1.046-0.678,2.083-1.379,3.118-2.087
					l-11.187-11.187l9.919-9.92l12.578,12.578c0.943-0.783,1.87-1.596,2.799-2.406l-12.775-12.775l9.919-9.919l13.012,13.012
					c0.85-0.886,1.72-1.761,2.545-2.661l-12.954-12.954l9.92-9.92l12.06,12.06c0.755-0.992,1.478-1.997,2.204-3.002L540.8,321.402
					l9.919-9.919l9.594,9.594c0.648-1.103,1.263-2.215,1.878-3.327l-8.869-8.869l9.919-9.92l5.472,5.472
					c0.525-1.228,1.022-2.461,1.509-3.697l-4.378-4.378l8.853-8.853C575.357,285.176,575.963,282.843,576.492,280.504z
					 M354.679,260.505l-9.487-9.487l9.92-9.92l9.487,9.487L354.679,260.505z M367.202,247.983l-9.487-9.487l9.92-9.92l9.487,9.487
					L367.202,247.983z M379.724,235.46l-9.487-9.487l9.92-9.92l9.487,9.487L379.724,235.46z M392.246,222.938l-9.487-9.487
					l9.92-9.92l9.487,9.487L392.246,222.938z M404.769,210.416l-9.487-9.487l9.92-9.92l9.487,9.487L404.769,210.416z
					 M417.291,197.893l-9.487-9.487l9.92-9.92l9.487,9.487L417.291,197.893z M429.813,185.371l-9.487-9.487l9.92-9.92l9.487,9.487
					L429.813,185.371z M442.336,172.849l-9.487-9.487l9.921-9.921l9.487,9.487L442.336,172.849z M341.725,297.64l-9.487-9.487
					l9.92-9.92l9.487,9.487L341.725,297.64z M354.247,285.118l-9.487-9.487l9.92-9.919l9.487,9.487L354.247,285.118z
					 M366.769,272.595l-9.487-9.487l9.92-9.92l9.487,9.487L366.769,272.595z M379.292,260.073l-9.487-9.487l9.92-9.92l9.487,9.487
					L379.292,260.073z M391.814,247.551l-9.487-9.487l9.92-9.92l9.487,9.487L391.814,247.551z M404.337,235.028l-9.487-9.487
					l9.92-9.92l9.487,9.487L404.337,235.028z M416.859,222.506l-9.487-9.487l9.92-9.92l9.487,9.487L416.859,222.506z
					 M429.381,209.984l-9.487-9.487l9.92-9.92l9.487,9.487L429.381,209.984z M441.904,197.461l-9.487-9.487l9.92-9.92l9.487,9.487
					L441.904,197.461z M454.426,184.939l-9.487-9.487l9.921-9.921l9.487,9.487L454.426,184.939z M466.95,172.415l-9.487-9.487
					l9.919-9.92l9.487,9.487L466.95,172.415z M353.816,309.732l-9.489-9.489l9.92-9.92l9.489,9.489L353.816,309.732z
					 M366.339,297.209l-9.489-9.489l9.92-9.92l9.489,9.489L366.339,297.209z M378.861,284.687l-9.489-9.489l9.92-9.92l9.489,9.489
					L378.861,284.687z M391.383,272.165l-9.489-9.489l9.92-9.92l9.489,9.489L391.383,272.165z M403.906,259.642l-9.489-9.489
					l9.92-9.92l9.489,9.489L403.906,259.642z M416.428,247.12l-9.489-9.489l9.92-9.92l9.489,9.489L416.428,247.12z M428.95,234.598
					l-9.489-9.489l9.92-9.92l9.489,9.489L428.95,234.598z M441.473,222.075l-9.489-9.489l9.92-9.92l9.489,9.489L441.473,222.075z
					 M453.995,209.553l-9.489-9.489l9.92-9.92l9.489,9.489L453.995,209.553z M466.517,197.03l-9.489-9.489l9.921-9.921l9.489,9.489
					L466.517,197.03z M479.041,184.507l-9.489-9.489l9.919-9.92l9.489,9.489L479.041,184.507z M491.563,171.984l-9.489-9.489
					l9.92-9.92l9.489,9.489L491.563,171.984z M365.906,321.822l-9.487-9.487l9.919-9.92l9.487,9.487L365.906,321.822z
					 M378.429,309.299l-9.487-9.487l9.92-9.919l9.487,9.487L378.429,309.299z M390.951,296.777l-9.487-9.487l9.919-9.92l9.487,9.487
					L390.951,296.777z M403.474,284.255l-9.487-9.487l9.92-9.919l9.487,9.487L403.474,284.255z M415.996,271.732l-9.487-9.487
					l9.919-9.92l9.487,9.487L415.996,271.732z M428.518,259.21l-9.487-9.487l9.92-9.92l9.487,9.487L428.518,259.21z
					 M441.041,246.688l-9.487-9.487l9.919-9.92l9.487,9.487L441.041,246.688z M453.563,234.165l-9.487-9.487l9.92-9.92l9.487,9.487
					L453.563,234.165z M466.085,221.643l-9.487-9.487l9.919-9.92l9.487,9.487L466.085,221.643z M478.608,209.121l-9.487-9.487
					l9.921-9.921l9.487,9.487L478.608,209.121z M491.131,196.597l-9.487-9.487l9.92-9.92l9.487,9.487L491.131,196.597z
					 M503.654,184.075l-9.487-9.487l9.919-9.92l9.487,9.487L503.654,184.075z M377.997,333.912l-9.487-9.487l9.919-9.92l9.487,9.487
					L377.997,333.912z M390.519,321.39l-9.487-9.487l9.92-9.919l9.487,9.487L390.519,321.39z M403.041,308.867l-9.487-9.487
					l9.919-9.92l9.487,9.487L403.041,308.867z M415.564,296.345l-9.487-9.487l9.92-9.919l9.487,9.487L415.564,296.345z
					 M428.086,283.823l-9.487-9.487l9.919-9.92l9.487,9.487L428.086,283.823z M440.608,271.3l-9.487-9.487l9.92-9.92l9.487,9.487
					L440.608,271.3z M453.131,258.778l-9.487-9.487l9.919-9.92l9.487,9.487L453.131,258.778z M465.653,246.256l-9.487-9.487
					l9.92-9.92l9.487,9.487L465.653,246.256z M478.176,233.733l-9.487-9.487l9.919-9.92l9.487,9.487L478.176,233.733z
					 M490.698,221.211l-9.487-9.487l9.921-9.921l9.487,9.487L490.698,221.211z M503.222,208.687l-9.487-9.487l9.92-9.92l9.487,9.487
					L503.222,208.687z M515.744,196.165l-9.487-9.487l9.92-9.92l9.487,9.487L515.744,196.165z M390.087,346.002l-9.487-9.487
					l9.919-9.92l9.487,9.487L390.087,346.002z M402.609,333.48l-9.487-9.487l9.92-9.919l9.487,9.487L402.609,333.48z
					 M415.132,320.958l-9.487-9.487l9.919-9.92l9.487,9.487L415.132,320.958z M427.654,308.435l-9.487-9.487l9.92-9.919l9.487,9.487
					L427.654,308.435z M440.176,295.913l-9.487-9.487l9.919-9.92l9.487,9.487L440.176,295.913z M452.699,283.391l-9.487-9.487
					l9.92-9.92l9.487,9.487L452.699,283.391z M465.221,270.868l-9.487-9.487l9.919-9.92l9.487,9.487L465.221,270.868z
					 M477.743,258.346l-9.487-9.487l9.92-9.92l9.487,9.487L477.743,258.346z M490.266,245.824l-9.487-9.487l9.919-9.92l9.487,9.487
					L490.266,245.824z M502.788,233.301l-9.487-9.487l9.921-9.921l9.487,9.487L502.788,233.301z M515.312,220.778l-9.487-9.487
					l9.92-9.92l9.487,9.487L515.312,220.778z M527.834,208.255l-9.487-9.487l9.919-9.92l9.487,9.487L527.834,208.255z
					 M402.178,358.094l-9.489-9.489l9.919-9.92l9.489,9.489L402.178,358.094z M414.701,345.572l-9.489-9.489l9.92-9.919l9.489,9.489
					L414.701,345.572z M427.223,333.049l-9.489-9.489l9.919-9.92l9.489,9.489L427.223,333.049z M439.746,320.527l-9.489-9.489
					l9.92-9.919l9.489,9.489L439.746,320.527z M452.268,308.004l-9.489-9.489l9.919-9.92l9.489,9.489L452.268,308.004z
					 M464.79,295.482l-9.489-9.489l9.92-9.92l9.489,9.489L464.79,295.482z M477.313,282.96l-9.489-9.489l9.919-9.919l9.489,9.489
					L477.313,282.96z M489.835,270.437l-9.489-9.489l9.92-9.92l9.489,9.489L489.835,270.437z M502.357,257.915l-9.489-9.489
					l9.919-9.92l9.489,9.489L502.357,257.915z M514.88,245.393l-9.489-9.489l9.921-9.921l9.489,9.489L514.88,245.393z
					 M527.403,232.869l-9.489-9.489l9.919-9.92l9.489,9.489L527.403,232.869z M539.926,220.347l-9.489-9.489l9.92-9.92l9.489,9.489
					L539.926,220.347z M414.269,370.184l-9.487-9.487l9.92-9.919l9.487,9.487L414.269,370.184z M426.791,357.662l-9.487-9.487
					l9.919-9.92l9.487,9.487L426.791,357.662z M439.313,345.139l-9.487-9.487l9.92-9.92l9.487,9.487L439.313,345.139z
					 M451.836,332.617l-9.487-9.487l9.919-9.919l9.487,9.487L451.836,332.617z M464.358,320.095l-9.487-9.487l9.92-9.92l9.487,9.487
					L464.358,320.095z M476.88,307.572l-9.487-9.487l9.919-9.919l9.487,9.487L476.88,307.572z M489.403,295.05l-9.487-9.487
					l9.92-9.92l9.487,9.487L489.403,295.05z M501.925,282.528l-9.487-9.487l9.919-9.919l9.487,9.487L501.925,282.528z
					 M514.448,270.005l-9.487-9.487l9.919-9.92l9.487,9.487L514.448,270.005z M526.97,257.483l-9.487-9.487l9.921-9.921l9.487,9.487
					L526.97,257.483z M539.494,244.959l-9.487-9.487l9.92-9.92l9.487,9.487L539.494,244.959z M552.016,232.437l-9.487-9.487
					l9.919-9.92l9.487,9.487L552.016,232.437z M426.359,382.274l-9.487-9.487l9.92-9.92l9.487,9.487L426.359,382.274z
					 M438.881,369.752l-9.487-9.487l9.919-9.919l9.487,9.487L438.881,369.752z M451.404,357.23l-9.487-9.487l9.92-9.92l9.487,9.487
					L451.404,357.23z M463.926,344.707l-9.487-9.487l9.919-9.919l9.487,9.487L463.926,344.707z M476.448,332.185l-9.487-9.487
					l9.92-9.92l9.487,9.487L476.448,332.185z M488.971,319.663l-9.487-9.487l9.919-9.919l9.487,9.487L488.971,319.663z
					 M501.493,307.14l-9.487-9.487l9.92-9.92l9.487,9.487L501.493,307.14z M514.015,294.618l-9.487-9.487l9.92-9.92l9.487,9.487
					L514.015,294.618z M526.538,282.096l-9.487-9.487l9.919-9.92l9.487,9.487L526.538,282.096z M539.06,269.573l-9.487-9.487
					l9.921-9.921l9.487,9.487L539.06,269.573z M551.584,257.05l-9.487-9.487l9.919-9.92l9.487,9.487L551.584,257.05z
					 M564.106,244.527l-9.487-9.487l9.919-9.92l9.487,9.487L564.106,244.527z M438.45,394.366l-9.489-9.489l9.92-9.92l9.489,9.489
					L438.45,394.366z M450.973,381.844l-9.489-9.489l9.919-9.919l9.489,9.489L450.973,381.844z M463.495,369.321l-9.489-9.489
					l9.92-9.92l9.489,9.489L463.495,369.321z M476.018,356.799l-9.489-9.489l9.919-9.919l9.489,9.489L476.018,356.799z
					 M488.54,344.276l-9.489-9.489l9.92-9.92l9.489,9.489L488.54,344.276z M501.062,331.754l-9.489-9.489l9.919-9.919l9.489,9.489
					L501.062,331.754z M513.585,319.232l-9.489-9.489l9.92-9.92l9.489,9.489L513.585,319.232z M526.107,306.709l-9.489-9.489
					l9.919-9.92l9.489,9.489L526.107,306.709z M538.629,294.187l-9.489-9.489l9.919-9.919l9.489,9.489L538.629,294.187z
					 M551.152,281.665l-9.489-9.489l9.921-9.921l9.489,9.489L551.152,281.665z M563.675,269.141l-9.489-9.489l9.92-9.92l9.489,9.489
					L563.675,269.141z M475.585,381.411l-9.487-9.487l9.919-9.919l9.487,9.487L475.585,381.411z M488.108,368.889l-9.487-9.487
					l9.92-9.92l9.487,9.487L488.108,368.889z M500.63,356.367l-9.487-9.487l9.919-9.92l9.487,9.487L500.63,356.367z
					 M513.152,343.844l-9.487-9.487l9.92-9.919l9.487,9.487L513.152,343.844z M525.675,331.322l-9.487-9.487l9.919-9.92l9.487,9.487
					L525.675,331.322z M538.197,318.8l-9.487-9.487l9.919-9.919l9.487,9.487L538.197,318.8z M550.72,306.277l-9.487-9.487l9.92-9.92
					l9.487,9.487L550.72,306.277z M563.242,293.755l-9.487-9.487l9.921-9.921l9.487,9.487L563.242,293.755z">
       </path>
      </g>
      <g>
       <path style="fill:#7AD2E6;" d="M542.031,184.8c40.219,40.219,34.214,111.665-13.386,159.265
					c-47.6,47.6-119.046,53.605-159.265,13.386c-40.219-40.219-34.214-111.665,13.386-159.265
					C430.366,150.586,501.812,144.581,542.031,184.8 M549.839,176.992c-44.596-44.596-122.893-38.603-174.882,13.386
					c-51.989,51.989-57.982,130.286-13.386,174.882c44.596,44.596,122.893,38.603,174.882-13.386S594.435,221.587,549.839,176.992
					L549.839,176.992z">
       </path>
      </g>
      <g>
       <path style="fill:#7AD2E6;" d="M353.123,384.014l-10.306-10.306c-4.666-4.666-4.666-12.231,0-16.897l10.306-10.306
					c4.666-4.666,12.231-4.666,16.897,0l10.306,10.306c4.666,4.666,4.666,12.231,0,16.897l-10.306,10.306
					C365.354,388.68,357.789,388.68,353.123,384.014z">
       </path>
      </g>
      <g>
       <path style="fill:#FF808D;" d="M52.097,674.734L52.097,674.734c-5.724-5.724-5.724-15.003,0-20.727l100.611-100.611
					c5.724-5.724,15.003-5.724,20.727,0l0,0c5.724,5.724,5.724,15.003,0,20.727L72.824,674.734
					C67.1,680.457,57.821,680.457,52.097,674.734z">
       </path>
      </g>
     </g>
     <g>
      <g>
       <rect x="309.837" y="324.924" transform="matrix(-0.7071 0.7071 -0.7071 -0.7071 865.7894 566.6544)" style="fill:#FFDF95;" width="11.399" height="275.429">
       </rect>
      </g>
      <g>
       <path style="fill:#DFE6F2;" d="M5.032,287.505l8.853,8.853l-4.378,4.378c0.487,1.236,0.984,2.468,1.509,3.697l5.472-5.472
					l9.92,9.92l-8.869,8.869c0.616,1.113,1.231,2.225,1.878,3.327l9.594-9.594l9.92,9.919l-11.661,11.661
					c0.726,1.004,1.449,2.01,2.204,3.002l12.06-12.06l9.92,9.92l-12.954,12.954c0.824,0.9,1.694,1.775,2.545,2.661l13.012-13.012
					l9.92,9.919l-12.775,12.775c0.93,0.81,1.857,1.623,2.8,2.406l12.578-12.578l9.92,9.92L65.31,370.156
					c1.035,0.708,2.072,1.409,3.118,2.087l10.671-10.671l9.92,9.92l-8.056,8.056c1.155,0.598,2.319,1.158,3.483,1.722l7.176-7.176
					l9.92,9.919l-3.152,3.152c1.292,0.465,2.589,0.894,3.887,1.319l1.868-1.868l3.501,3.501c2.329,0.659,4.662,1.266,7,1.795
					l-7.898-7.898l9.487-9.487l9.92,9.92l-8.164,8.164c1.463,0.292,2.925,0.576,4.388,0.817l6.379-6.379l7.904,7.904
					c3.04,0.156,6.071,0.224,9.083,0.155l7.627-7.627l6.434,6.435c1.499-0.217,2.99-0.457,4.473-0.732l-8.305-8.305l9.487-9.487
					l13.894,13.894c1.28-0.435,2.538-0.923,3.799-1.406l-15.09-15.09l9.487-9.487l18.55,18.55c1.11-0.616,2.215-1.243,3.303-1.903
					l-19.25-19.25l9.489-9.489l20.888,20.888c0.954-0.775,1.904-1.557,2.834-2.372l-21.119-21.119l9.487-9.487l21.099,21.098
					c0.811-0.932,1.601-1.877,2.372-2.833l-20.868-20.868l9.487-9.487l19.189,19.189c0.655-1.09,1.29-2.191,1.902-3.303
					l-18.489-18.489l9.487-9.487l14.985,14.985c0.48-1.265,0.961-2.529,1.392-3.813l-13.775-13.775l9.489-9.489l8.152,8.152
					c0.271-1.489,0.502-2.987,0.715-4.491l-6.263-6.263l7.398-7.398c0.073-3.17-0.004-6.362-0.18-9.563l-7.651-7.651l6.151-6.151
					c-0.241-1.463-0.525-2.926-0.817-4.388l-7.937,7.937l-9.92-9.92l9.487-9.487l7.525,7.525c-0.544-2.352-1.16-4.699-1.835-7.041
					l-3.087-3.087l1.64-1.64c-0.425-1.298-0.854-2.595-1.319-3.887l-2.924,2.924l-9.92-9.92l6.948-6.948
					c-0.564-1.164-1.124-2.329-1.722-3.483l-7.828,7.828l-9.92-9.92l10.444-10.444c-0.679-1.046-1.379-2.084-2.087-3.118
					l-10.959,10.959l-9.92-9.92l12.351-12.351c-0.783-0.943-1.596-1.87-2.406-2.8l-12.547,12.547l-9.92-9.92l12.785-12.785
					c-0.886-0.85-1.761-1.72-2.661-2.545l-12.727,12.727l-9.92-9.92l11.832-11.832c-0.992-0.755-1.997-1.478-3.002-2.204
					l-11.433,11.433l-9.92-9.92l9.366-9.366c-1.103-0.648-2.215-1.263-3.327-1.878l-8.641,8.641l-9.92-9.92l5.244-5.244
					c-1.228-0.525-2.461-1.022-3.697-1.509l-4.15,4.15l-8.439-8.439c-2.342-0.675-4.689-1.292-7.041-1.835l0.354,0.354l-9.487,9.487
					l-9.92-9.92l2.637-2.637c-1.605-0.162-3.208-0.298-4.808-0.397l-0.431,0.431l-0.479-0.479c-1.8-0.099-3.595-0.161-5.387-0.181
					l3.263,3.263l-9.487,9.487l-9.92-9.92l2.184-2.184c-2.815,0.3-5.606,0.699-8.37,1.203l0.981,0.981l-9.489,9.489l-6.604-6.604
					c-1.284,0.431-2.548,0.912-3.813,1.392l7.814,7.814l-9.487,9.487l-11.318-11.318c-1.112,0.612-2.213,1.247-3.303,1.902
					l12.018,12.018l-9.487,9.487l-13.697-13.697c-0.956,0.772-1.902,1.561-2.834,2.372l13.927,13.927l-9.487,9.487l-13.948-13.948
					c-0.815,0.93-1.597,1.88-2.372,2.834l13.717,13.717l-9.489,9.489l-12.079-12.079c-0.659,1.088-1.287,2.193-1.903,3.303
					l11.379,11.379l-9.487,9.487l-7.919-7.919c-0.484,1.261-0.972,2.52-1.406,3.799l6.722,6.722l-9.487,9.487l-1.134-1.134
					c-0.537,2.889-0.965,5.807-1.279,8.752l2.413-2.413l9.92,9.92l-9.489,9.489l-3.493-3.493c0.014,1.784,0.066,3.571,0.158,5.364
					l0.732,0.732l-0.659,0.659c0.1,1.601,0.236,3.203,0.397,4.808l2.864-2.864l9.92,9.919l-9.487,9.487l-0.727-0.727
					C3.766,282.843,4.373,285.176,5.032,287.505z M215.131,250.586l9.487-9.487l9.92,9.92l-9.487,9.487L215.131,250.586z
					 M202.608,238.063l9.487-9.487l9.92,9.92l-9.487,9.487L202.608,238.063z M190.086,225.541l9.487-9.487l9.92,9.92l-9.487,9.487
					L190.086,225.541z M177.564,213.019l9.487-9.487l9.92,9.92l-9.487,9.487L177.564,213.019z M165.041,200.496l9.487-9.487
					l9.92,9.92l-9.487,9.487L165.041,200.496z M152.519,187.974l9.487-9.487l9.92,9.92l-9.487,9.487L152.519,187.974z
					 M139.997,175.452l9.487-9.487l9.92,9.92l-9.487,9.487L139.997,175.452z M127.473,162.928l9.487-9.487l9.921,9.921l-9.487,9.487
					L127.473,162.928z M228.085,287.721l9.487-9.487l9.92,9.92l-9.487,9.487L228.085,287.721z M215.563,275.198l9.487-9.487
					l9.92,9.919l-9.487,9.487L215.563,275.198z M203.04,262.676l9.487-9.487l9.92,9.92l-9.487,9.487L203.04,262.676z
					 M190.518,250.154l9.487-9.487l9.92,9.92l-9.487,9.487L190.518,250.154z M177.996,237.631l9.487-9.487l9.92,9.92l-9.487,9.487
					L177.996,237.631z M165.473,225.109l9.487-9.487l9.92,9.92l-9.487,9.487L165.473,225.109z M152.951,212.586l9.487-9.487
					l9.92,9.92l-9.487,9.487L152.951,212.586z M140.429,200.064l9.487-9.487l9.92,9.92l-9.487,9.487L140.429,200.064z
					 M127.906,187.542l9.487-9.487l9.92,9.92l-9.487,9.487L127.906,187.542z M115.383,175.018l9.487-9.487l9.921,9.921l-9.487,9.487
					L115.383,175.018z M102.86,162.496l9.487-9.487l9.92,9.92l-9.487,9.487L102.86,162.496z M215.994,299.812l9.489-9.489l9.92,9.92
					l-9.489,9.489L215.994,299.812z M203.471,287.29l9.489-9.489l9.92,9.92l-9.489,9.489L203.471,287.29z M190.949,274.767
					l9.489-9.489l9.92,9.92l-9.489,9.489L190.949,274.767z M178.427,262.245l9.489-9.489l9.92,9.92l-9.489,9.489L178.427,262.245z
					 M165.904,249.723l9.489-9.489l9.92,9.92l-9.489,9.489L165.904,249.723z M153.382,237.2l9.489-9.489l9.92,9.92l-9.489,9.489
					L153.382,237.2z M140.859,224.678l9.489-9.489l9.92,9.92l-9.489,9.489L140.859,224.678z M128.337,212.156l9.489-9.489l9.92,9.92
					l-9.489,9.489L128.337,212.156z M115.815,199.633l9.489-9.489l9.92,9.92l-9.489,9.489L115.815,199.633z M103.291,187.11
					l9.489-9.489l9.921,9.921l-9.489,9.489L103.291,187.11z M90.769,174.587l9.489-9.489l9.92,9.92l-9.489,9.489L90.769,174.587z
					 M78.246,162.065l9.489-9.489l9.92,9.92l-9.489,9.489L78.246,162.065z M203.903,311.902l9.487-9.487l9.92,9.92l-9.487,9.487
					L203.903,311.902z M191.381,299.38l9.487-9.487l9.92,9.919l-9.487,9.487L191.381,299.38z M178.859,286.858l9.487-9.487
					l9.92,9.92l-9.487,9.487L178.859,286.858z M166.336,274.335l9.487-9.487l9.92,9.919l-9.487,9.487L166.336,274.335z
					 M153.814,261.813l9.487-9.487l9.92,9.92l-9.487,9.487L153.814,261.813z M141.292,249.291l9.487-9.487l9.92,9.92l-9.487,9.487
					L141.292,249.291z M128.769,236.768l9.487-9.487l9.92,9.92l-9.487,9.487L128.769,236.768z M116.247,224.246l9.487-9.487
					l9.92,9.92l-9.487,9.487L116.247,224.246z M103.725,211.724l9.487-9.487l9.92,9.92l-9.487,9.487L103.725,211.724z M91.201,199.2
					l9.487-9.487l9.921,9.921l-9.487,9.487L91.201,199.2z M78.679,186.678l9.487-9.487l9.92,9.92l-9.487,9.487L78.679,186.678z
					 M66.156,174.155l9.487-9.487l9.92,9.92l-9.487,9.487L66.156,174.155z M191.813,323.993l9.487-9.487l9.92,9.92l-9.487,9.487
					L191.813,323.993z M179.291,311.47l9.487-9.487l9.92,9.919l-9.487,9.487L179.291,311.47z M166.768,298.948l9.487-9.487
					l9.92,9.92l-9.487,9.487L166.768,298.948z M154.246,286.426l9.487-9.487l9.92,9.919l-9.487,9.487L154.246,286.426z
					 M141.724,273.903l9.487-9.487l9.92,9.92l-9.487,9.487L141.724,273.903z M129.201,261.381l9.487-9.487l9.92,9.92l-9.487,9.487
					L129.201,261.381z M116.679,248.858l9.487-9.487l9.92,9.92l-9.487,9.487L116.679,248.858z M104.157,236.336l9.487-9.487
					l9.92,9.92l-9.487,9.487L104.157,236.336z M91.634,223.814l9.487-9.487l9.92,9.92l-9.487,9.487L91.634,223.814z M79.111,211.29
					l9.487-9.487l9.921,9.921l-9.487,9.487L79.111,211.29z M66.588,198.768l9.487-9.487l9.92,9.92l-9.487,9.487L66.588,198.768z
					 M54.066,186.245l9.487-9.487l9.92,9.92l-9.487,9.487L54.066,186.245z M179.723,336.083l9.487-9.487l9.92,9.92l-9.487,9.487
					L179.723,336.083z M167.201,323.56l9.487-9.487l9.92,9.919l-9.487,9.487L167.201,323.56z M154.678,311.038l9.487-9.487
					l9.92,9.92l-9.487,9.487L154.678,311.038z M142.156,298.516l9.487-9.487l9.92,9.919l-9.487,9.487L142.156,298.516z
					 M129.633,285.993l9.487-9.487l9.92,9.92l-9.487,9.487L129.633,285.993z M117.111,273.471l9.487-9.487l9.92,9.92l-9.487,9.487
					L117.111,273.471z M104.589,260.949l9.487-9.487l9.92,9.92l-9.487,9.487L104.589,260.949z M92.066,248.426l9.487-9.487
					l9.92,9.92l-9.487,9.487L92.066,248.426z M79.544,235.904l9.487-9.487l9.92,9.92l-9.487,9.487L79.544,235.904z M67.02,223.38
					l9.487-9.487l9.921,9.921l-9.487,9.487L67.02,223.38z M54.498,210.858l9.487-9.487l9.92,9.92l-9.487,9.487L54.498,210.858z
					 M41.976,198.336l9.487-9.487l9.92,9.92l-9.487,9.487L41.976,198.336z M167.631,348.174l9.489-9.489l9.92,9.92l-9.489,9.489
					L167.631,348.174z M155.109,335.652l9.489-9.489l9.92,9.919l-9.489,9.489L155.109,335.652z M142.587,323.13l9.489-9.489
					l9.92,9.92l-9.489,9.489L142.587,323.13z M130.064,310.607l9.489-9.489l9.92,9.919l-9.489,9.489L130.064,310.607z
					 M117.542,298.085l9.489-9.489l9.92,9.92l-9.489,9.489L117.542,298.085z M105.02,285.563l9.489-9.489l9.92,9.92l-9.489,9.489
					L105.02,285.563z M92.497,273.04l9.489-9.489l9.92,9.919l-9.489,9.489L92.497,273.04z M79.975,260.518l9.489-9.489l9.92,9.92
					l-9.489,9.489L79.975,260.518z M67.453,247.996l9.489-9.489l9.92,9.92l-9.489,9.489L67.453,247.996z M54.929,235.472
					l9.489-9.489l9.921,9.921l-9.489,9.489L54.929,235.472z M42.407,222.95l9.489-9.489l9.92,9.92l-9.489,9.489L42.407,222.95z
					 M29.884,210.427l9.489-9.489l9.92,9.92l-9.489,9.489L29.884,210.427z M155.541,360.265l9.487-9.487l9.92,9.919l-9.487,9.487
					L155.541,360.265z M143.019,347.742l9.487-9.487l9.92,9.92l-9.487,9.487L143.019,347.742z M130.496,335.22l9.487-9.487
					l9.92,9.92l-9.487,9.487L130.496,335.22z M117.974,322.698l9.487-9.487l9.92,9.919l-9.487,9.487L117.974,322.698z
					 M105.452,310.175l9.487-9.487l9.92,9.92l-9.487,9.487L105.452,310.175z M92.929,297.653l9.487-9.487l9.92,9.919l-9.487,9.487
					L92.929,297.653z M80.407,285.13l9.487-9.487l9.92,9.92l-9.487,9.487L80.407,285.13z M67.885,272.608l9.487-9.487l9.92,9.919
					l-9.487,9.487L67.885,272.608z M55.362,260.086l9.487-9.487l9.92,9.92l-9.487,9.487L55.362,260.086z M42.839,247.562
					l9.487-9.487l9.921,9.921l-9.487,9.487L42.839,247.562z M30.316,235.04l9.487-9.487l9.92,9.92l-9.487,9.487L30.316,235.04z
					 M17.794,222.517l9.487-9.487l9.92,9.92l-9.487,9.487L17.794,222.517z M143.451,372.355l9.487-9.487l9.92,9.92l-9.487,9.487
					L143.451,372.355z M130.929,359.832l9.487-9.487l9.92,9.919l-9.487,9.487L130.929,359.832z M118.406,347.31l9.487-9.487
					l9.92,9.92l-9.487,9.487L118.406,347.31z M105.884,334.788l9.487-9.487l9.92,9.919l-9.487,9.487L105.884,334.788z
					 M93.361,322.265l9.487-9.487l9.92,9.92l-9.487,9.487L93.361,322.265z M80.839,309.743l9.487-9.487l9.92,9.919l-9.487,9.487
					L80.839,309.743z M68.317,297.221l9.487-9.487l9.92,9.92l-9.487,9.487L68.317,297.221z M55.794,284.698l9.487-9.487l9.92,9.92
					l-9.487,9.487L55.794,284.698z M43.272,272.176l9.487-9.487l9.92,9.92l-9.487,9.487L43.272,272.176z M30.748,259.652
					l9.487-9.487l9.921,9.921l-9.487,9.487L30.748,259.652z M18.226,247.13l9.487-9.487l9.92,9.92l-9.487,9.487L18.226,247.13z
					 M5.704,234.608l9.487-9.487l9.92,9.92l-9.487,9.487L5.704,234.608z M131.359,384.446l9.489-9.489l9.92,9.92l-9.489,9.489
					L131.359,384.446z M118.837,371.924l9.489-9.489l9.92,9.919l-9.489,9.489L118.837,371.924z M106.315,359.402l9.489-9.489
					l9.92,9.92l-9.489,9.489L106.315,359.402z M93.792,346.879l9.489-9.489l9.92,9.919l-9.489,9.489L93.792,346.879z M81.27,334.357
					l9.489-9.489l9.92,9.92l-9.489,9.489L81.27,334.357z M68.748,321.835l9.489-9.489l9.92,9.919l-9.489,9.489L68.748,321.835z
					 M56.225,309.312l9.489-9.489l9.92,9.92l-9.489,9.489L56.225,309.312z M43.703,296.79l9.489-9.489l9.92,9.92l-9.489,9.489
					L43.703,296.79z M31.181,284.268l9.489-9.489l9.92,9.919l-9.489,9.489L31.181,284.268z M18.657,271.744l9.489-9.489l9.921,9.921
					l-9.489,9.489L18.657,271.744z M6.135,259.222l9.489-9.489l9.92,9.92l-9.489,9.489L6.135,259.222z M94.224,371.492l9.487-9.487
					l9.92,9.919l-9.487,9.487L94.224,371.492z M81.702,358.97l9.487-9.487l9.92,9.92l-9.487,9.487L81.702,358.97z M69.18,346.447
					l9.487-9.487l9.92,9.92l-9.487,9.487L69.18,346.447z M56.657,333.925l9.487-9.487l9.92,9.919l-9.487,9.487L56.657,333.925z
					 M44.135,321.402l9.487-9.487l9.92,9.92l-9.487,9.487L44.135,321.402z M31.613,308.88l9.487-9.487l9.92,9.919l-9.487,9.487
					L31.613,308.88z M19.09,296.358l9.487-9.487l9.92,9.92l-9.487,9.487L19.09,296.358z M6.567,283.834l9.487-9.487l9.921,9.921
					l-9.487,9.487L6.567,283.834z">
       </path>
      </g>
      <g>
       <path style="fill:#7AD2E6;" d="M37.699,184.8c40.219-40.219,111.665-34.214,159.265,13.386s53.605,119.046,13.386,159.265
					C170.13,397.67,98.685,391.665,51.085,344.065S-2.52,225.019,37.699,184.8 M29.89,176.992
					c-44.596,44.596-38.603,122.893,13.386,174.882s130.286,57.982,174.882,13.386c44.596-44.596,38.603-122.893-13.386-174.882
					S74.486,132.396,29.89,176.992L29.89,176.992z">
       </path>
      </g>
      <g>
       <path style="fill:#7AD2E6;" d="M226.607,384.014l10.306-10.306c4.666-4.666,4.666-12.231,0-16.897l-10.306-10.306
					c-4.666-4.666-12.231-4.666-16.897,0l-10.306,10.306c-4.666,4.666-4.666,12.231,0,16.897l10.306,10.306
					C214.375,388.68,221.94,388.68,226.607,384.014z">
       </path>
      </g>
      <g>
       <path style="fill:#FF808D;" d="M527.632,674.734L527.632,674.734c5.724-5.724,5.724-15.003,0-20.727L427.021,553.396
					c-5.724-5.724-15.003-5.724-20.727,0l0,0c-5.724,5.724-5.724,15.003,0,20.727l100.611,100.611
					C512.629,680.457,521.909,680.457,527.632,674.734z">
       </path>
      </g>
     </g>
    </g>
   </g>
  </svg>
