  <svg xmlns="http://www.w3.org/2000/svg" viewBox="0 0 1183.732 480.831">
   <g data-name="图层 2">
    <g data-name="图层 1">
     <g style="opacity:0.22">
      <path d="M0,279.222l30.092-36.647c15.791,13.407,36.349,22.644,53.928,22.644,19.664,0,28.9-7.449,28.9-19.367,0-12.811-12.216-16.983-31.284-25.027l-28.3-11.918c-23.239-9.236-44.989-28.6-44.989-60.78,0-37.243,33.37-67.037,80.445-67.037,25.623,0,52.735,9.832,72.1,29.2l-26.517,33.37c-14.6-11.024-28.305-16.983-45.585-16.983-16.388,0-26.517,6.554-26.517,18.472,0,12.216,14,16.983,33.668,24.73L123.646,180.9c27.411,11.025,43.8,29.5,43.8,60.781,0,36.945-30.985,69.42-84.615,69.42C53.928,311.1,22.941,300.376,0,279.222Z" style="fill:#3d93e3">
      </path>
      <path d="M204.388,85.261h77.763c48.863,0,89.085,17.281,89.085,72.1,0,52.736-40.818,75.976-87.595,75.976H257.72v73.592H204.388Zm76.571,106.068c25.921,0,38.435-12.216,38.435-33.966,0-22.346-14.3-30.093-39.924-30.093H257.72v64.059Z" style="fill:#3d93e3">
      </path>
      <path d="M398.945,194.9c0-72.7,41.117-113.814,101.6-113.814s101.6,41.414,101.6,113.814c0,72.7-41.117,116.2-101.6,116.2S398.945,267.6,398.945,194.9Zm148.972,0c0-42.9-18.175-68.229-47.373-68.229S453.469,152,453.469,194.9c0,43.2,17.877,70.315,47.075,70.315S547.917,238.105,547.917,194.9Z" style="fill:#3d93e3">
      </path>
      <path d="M763.032,306.931l-40.818-78.062H696.591v78.062H643.259V85.261H724.6c47.373,0,86.7,16.088,86.7,69.718,0,32.476-15.195,53.332-38.137,64.058l49.458,87.894ZM696.591,186.859h23.835c25.325,0,38.733-11.023,38.733-31.88s-13.408-27.709-38.733-27.709H696.591Z" style="fill:#3d93e3">
      </path>
      <path d="M890.555,129.356H830.668V85.261h173.4v44.1H943.886V306.931H890.555Z" style="fill:#3d93e3">
      </path>
      <path d="M1016.289,279.222l30.092-36.647c15.791,13.407,36.349,22.644,53.928,22.644,19.664,0,28.9-7.449,28.9-19.367,0-12.811-12.216-16.983-31.284-25.027l-28.305-11.918c-23.239-9.236-44.989-28.6-44.989-60.78,0-37.243,33.37-67.037,80.445-67.037,25.623,0,52.736,9.832,72.1,29.2l-26.517,33.37c-14.6-11.024-28.305-16.983-45.585-16.983-16.388,0-26.517,6.554-26.517,18.472,0,12.216,14,16.983,33.668,24.73l27.709,11.023c27.41,11.025,43.8,29.5,43.8,60.781,0,36.945-30.985,69.42-84.615,69.42C1070.217,311.1,1039.23,300.376,1016.289,279.222Z" style="fill:#3d93e3">
      </path>
     </g>
     <path d="M683.848,158.705l16.344-5.18a2.713,2.713,0,0,1,3,.97c1.322,1.786,3.244,4.544,2.91,5.068C705.6,160.351,683.848,158.705,683.848,158.705Z" style="fill:#f2b896">
     </path>
     <path d="M634.59,59.823c-3.6,1.885-31.018,41.985-21.669,66.672s68.634,45.3,68.634,45.3l7.5-10.042-45.841-42s19.833-18.39,21.817-32.515C669.273,57,634.59,59.823,634.59,59.823Z" style="fill:#7b7acf">
     </path>
     <rect x="685.19" y="180.569" width="9.419" height="6.817" rx="2.791" transform="translate(114.649 -238.983) rotate(21.394)" style="fill:#47469e">
     </rect>
     <rect x="652.217" y="138.784" width="3.324" height="274.27" rx="1.662" transform="translate(145.705 -219.508) rotate(21.394)" style="fill:#7b7acf">
     </rect>
     <path d="M697.088,180.564a3.682,3.682,0,0,1,3.59-2.328l1.22-3.116a3.671,3.671,0,0,1,2.537-6.475l1.221-3.116a3.671,3.671,0,0,1,2.536-6.475l1.663-4.242-13.069-5.12-12.935,33.015,13.069,5.12,1.221-3.116A3.682,3.682,0,0,1,697.088,180.564Z" style="fill:#f55540">
     </path>
     <rect x="697.95" y="147.998" width="9.419" height="6.817" rx="2.791" transform="translate(103.647 -245.882) rotate(21.394)" style="fill:#f55540">
     </rect>
     <ellipse cx="609.146" cy="390.099" rx="2.884" ry="11.912" transform="translate(23.724 814.972) rotate(-68.606)" style="fill:#47469e">
     </ellipse>
     <path d="M676.546,170.737l14.269,7.672a7.78,7.78,0,0,0,9.627-1.832l8.833-10.458a4.617,4.617,0,0,0-3.561-7.49l-18.422-.215Z" style="fill:#ffcdb1">
     </path>
     <path d="M862.1,475.538h0c-9.805,5.74-28.323,7.008-41.361,2.833L339.3,324.219l35.507-20.784L856.246,457.588C869.284,461.762,871.905,469.8,862.1,475.538Z" style="fill:#f9be71">
     </path>
     <path d="M728.656,448.887l92.083,29.484c13.038,4.175,31.556,2.907,41.361-2.833h0c9.8-5.739,7.184-13.776-5.854-17.95L764.163,428.1Z" style="fill:#f55540">
     </path>
     <g style="opacity:0.24">
      <path d="M357.057,313.827,339.3,324.219,820.739,478.371c13.038,4.175,31.556,2.907,41.361-2.833Z" style="fill:#fff">
      </path>
     </g>
     <path d="M888.905,416.5h0c-9.8,5.739-28.323,7.007-41.361,2.833L366.109,265.178l35.507-20.784L883.051,398.547C896.089,402.721,898.71,410.758,888.905,416.5Z" style="fill:#f9be71">
     </path>
     <path d="M755.461,389.846l92.083,29.485c13.038,4.174,31.556,2.906,41.361-2.833h0c9.805-5.74,7.184-13.776-5.854-17.951l-92.083-29.485Z" style="fill:#f55540">
     </path>
     <g style="opacity:0.24">
      <path d="M383.862,254.786l-17.753,10.392L847.544,419.331c13.038,4.174,31.556,2.906,41.361-2.833Z" style="fill:#fff">
      </path>
     </g>
     <path d="M598.1,64.274l50.023-8.068s17.163,54.658-38.577,86.76c-3.935,1.588-12.356,13.167-12.356,13.167s46.591,52.984,49.857,63.766-53.986,74.51-58.632,85.3-11.331-30.7,19.481-75.532c0,0-61.008-27.556-57.209-66.188,3.737-38,15.686-79.015,15.686-79.015Z" style="fill:#47469e">
     </path>
     <path d="M671.963,29.887C669.2,12.439,654.113.33,638.278,2.843s-26.429,18.694-23.661,36.142a33.113,33.113,0,0,0,15.24,23.276c.045.029,16.682,11.089,25.314,9.58s16.383-14.962,16.909-31.727c0-.036,0-.066,0-.1A34.848,34.848,0,0,0,671.963,29.887Z" style="fill:#f2b896">
     </path>
     <path d="M627.9,6.86c-9.766,6.354-15.39,18.865-13.286,32.125a33.113,33.113,0,0,0,15.24,23.276c.045.029,16.682,11.089,25.314,9.58a10.715,10.715,0,0,0,2.6-.852,49.874,49.874,0,0,0,2.444-9.777l3.29-3.529-4.654-22.939Z" style="fill:#ffcdb1">
     </path>
     <path d="M672.716,27.248c-9.1-42.785-67.1-32.222-59.473,11.074-.507,9.667,21.293,39.835,19.121,16.437C628.181,9.7,661.092,52.385,672.716,27.248Z" style="fill:#3d93e3">
     </path>
     <path d="M638.868,38.659s19.994,2.841,21.6,2.586,12.167-7.1,12.167-7.1l-1.25,16.244-8.589,3.4-22.632.794Z" style="fill:#7b7acf">
     </path>
     <path d="M660.178,41.252c.522,2.473,1.772,8.391,2.646,12.525.262-.105,8.561-3.389,8.564-3.392l1.25-16.244s-10.557,6.848-12.167,7.1C660.413,41.254,660.282,41.251,660.178,41.252Z" style="fill:#47469e">
     </path>
     <path d="M612.086,27.41s21.35,10.5,21.25,10.751-1.28,12.083-1.28,12.083-20.272-7.962-20.362-9.195S612.086,27.41,612.086,27.41Z" style="fill:#47469e">
     </path>
     <path d="M611.913,32.1s21.015,10.316,20.914,10.569-.771,7.578-.771,7.578-20.272-7.962-20.362-9.195S611.913,32.1,611.913,32.1Z" style="fill:#fd523f">
     </path>
     <path d="M629.859,64.522a2.262,2.262,0,0,1-1.368-4.064c3.18-2.409,2.823-5.388,1.919-10.443-.848-4.748-1.9-10.656,2.279-16.279,3.993-5.366,9.707-3.762,15.235-2.211,7.347,2.064,14.946,4.2,23.041-5.709a2.262,2.262,0,0,1,3.5,2.864c-9.969,12.2-20.255,9.31-27.767,7.2-5.86-1.646-8.439-2.054-10.382.555-3.015,4.054-2.257,8.294-1.455,12.784.892,4.989,1.9,10.643-3.639,14.844A2.252,2.252,0,0,1,629.859,64.522Z" style="fill:#47469e">
     </path>
     <path d="M602.546,128.493s3.87,118-1.765,129.677-8.449,30.988-19.551,53.034-20.617,43.157-20.617,43.157l-14.2-4.965s9.656-79.531,29.772-97.3c-15.088-35.587-37.009-77.442-24.348-99.017S602.546,128.493,602.546,128.493Z" style="fill:#47469e">
     </path>
     <path d="M584.876,250.685c-38.548-73.214-21.359-97.738-21.359-97.738L553.835,119.3,548.7,141.834c.969,3.653,2.014,7.424,3.138,11.251-12.656,21.576,9.263,63.428,24.35,99.013-20.116,17.767-29.772,97.3-29.772,97.3l2.267.79a83.888,83.888,0,0,0,3.236-12.323C564.557,273.307,579.03,261.787,584.876,250.685Z" style="fill:#fd523f">
     </path>
     <path d="M548.047,336.979c-.613,3.872-2.853,22.182-2.853,22.182s-6.1,9.33-2.77,14.053c2.4,3.411,8.679,3.348,11.98,3.05a7.847,7.847,0,0,1,4.224.821c4.5,2.25,14.872,7.174,18.71,6.726a63.434,63.434,0,0,0,11.36-1.95,4.846,4.846,0,0,0,2.9-6.684h0a4.872,4.872,0,0,0-2.28-2.32l-11.108-5.412c-9.306-4.534-18.435-7.29-13.976-22.528" style="fill:#47469e">
     </path>
     <path d="M586.076,280.315c-2.939,17.872-16.057,19.118-14.847,29.515,2.57,5.956,10.666,4.424,14.774,7.7,3.812,3.277,9.292,8.629,13.155,8.693,2.927.049,19.833.053,18.548-6.818.418-3.589-11.215-6.089-13.174-7.381-12.26-9.227-13.415-15.256-2.826-26.041" style="fill:#47469e">
     </path>
     <path d="M597.192,149.911l17.146.03a2.712,2.712,0,0,1,2.566,1.837c.718,2.1,1.711,5.314,1.233,5.712C617.42,158.089,597.192,149.911,597.192,149.911Z" style="fill:#f2b896">
     </path>
     <path d="M621.647,60.215c-4,.7-89.134,5.757-87.726,32.118s57.111,69.354,57.111,69.354l10.191-7.29L577,109.1s21.955,4.869,32.986-4.175S621.647,60.215,621.647,60.215Z" style="fill:#7b7acf">
     </path>
     <path d="M576.574,66.48c-1.5,10.905-2.623,31.835,8.107,43.693a54.745,54.745,0,0,0,14.086-.5c-5.074-6.572-14.523-23.334-2.864-46.553C589.819,63.986,583.179,65.085,576.574,66.48Z" style="fill:#fd523f">
     </path>
     <rect x="590.572" y="172.419" width="9.419" height="6.817" rx="2.791" transform="translate(244.007 -335.916) rotate(39.078)" style="fill:#47469e">
     </rect>
     <rect x="531.372" y="115.348" width="3.324" height="274.27" rx="1.662" transform="translate(278.404 -279.529) rotate(39.078)" style="fill:#7b7acf">
     </rect>
     <path d="M603.167,174.76a3.681,3.681,0,0,1,4.127-1.128l2.11-2.6a3.671,3.671,0,0,1,4.383-5.4l2.11-2.6a3.671,3.671,0,0,1,4.384-5.4l2.872-3.537-10.9-8.848-22.352,27.527,10.895,8.848,2.11-2.6A3.682,3.682,0,0,1,603.167,174.76Z" style="fill:#f55540">
     </path>
     <rect x="612.623" y="145.264" width="9.419" height="6.817" rx="2.791" transform="translate(231.822 -355.891) rotate(39.078)" style="fill:#f55540">
     </rect>
     <ellipse cx="455.732" cy="347.68" rx="2.884" ry="11.912" transform="translate(-101.451 482.292) rotate(-50.922)" style="fill:#47469e">
     </ellipse>
     <path d="M586.581,159.157,597.845,170.8a7.779,7.779,0,0,0,9.729,1.179l11.592-7.281a4.618,4.618,0,0,0-1.117-8.218l-17.487-5.8Z" style="fill:#ffcdb1">
     </path>
    </g>
   </g>
  </svg>
